<svg width="500" height="500" viewBox="0 0 500 500" fill="none" xmlns="http://www.w3.org/2000/svg">
<path d="M336.925 367.25H178.013C177.737 367.25 177.473 367.359 177.279 367.554C177.084 367.748 176.975 368.012 176.975 368.287V407.137C176.978 407.41 177.089 407.671 177.283 407.863C177.477 408.055 177.739 408.162 178.013 408.162H377.837C378.109 408.162 378.37 408.054 378.562 407.862C378.754 407.67 378.862 407.409 378.862 407.137V135.462C378.863 135.189 378.755 134.927 378.563 134.733C378.371 134.539 378.11 134.428 377.837 134.425H188.337C188.064 134.425 187.802 134.317 187.608 134.126C187.414 133.934 187.303 133.673 187.3 133.4V88.6125C187.299 88.4087 187.238 88.2097 187.125 88.0403C187.012 87.8709 186.851 87.7387 186.663 87.66C186.475 87.5813 186.268 87.5598 186.068 87.598C185.868 87.6362 185.683 87.7326 185.537 87.875L121.862 151.625C121.669 151.819 121.561 152.082 121.561 152.356C121.561 152.63 121.669 152.893 121.862 153.087L185.537 216.837C185.683 216.98 185.868 217.076 186.068 217.114C186.268 217.153 186.475 217.131 186.663 217.052C186.851 216.974 187.012 216.841 187.125 216.672C187.238 216.503 187.299 216.304 187.3 216.1V176.337C187.303 176.064 187.414 175.804 187.608 175.612C187.802 175.42 188.064 175.312 188.337 175.312H336.925C337.197 175.312 337.458 175.42 337.65 175.613C337.842 175.805 337.95 176.066 337.95 176.337V366.25C337.943 366.517 337.833 366.772 337.641 366.959C337.45 367.146 337.193 367.25 336.925 367.25Z" fill="#D5FF00"/>
<path d="M217.667 219.653V301.188H207.794V230.004H207.316L187.41 243.222V233.189L207.794 219.653H217.667ZM267.711 302.302C261.712 302.302 256.603 300.67 252.383 297.405C248.163 294.114 244.938 289.35 242.709 283.113C240.479 276.849 239.365 269.285 239.365 260.42C239.365 251.609 240.479 244.084 242.709 237.847C244.965 231.583 248.203 226.806 252.423 223.515C256.669 220.197 261.765 218.538 267.711 218.538C273.656 218.538 278.738 220.197 282.958 223.515C287.205 226.806 290.443 231.583 292.672 237.847C294.929 244.084 296.057 251.609 296.057 260.42C296.057 269.285 294.942 276.849 292.712 283.113C290.483 289.35 287.258 294.114 283.038 297.405C278.818 300.67 273.709 302.302 267.711 302.302ZM267.711 293.544C273.656 293.544 278.274 290.677 281.565 284.944C284.856 279.211 286.502 271.037 286.502 260.42C286.502 253.36 285.745 247.349 284.232 242.385C282.746 237.422 280.596 233.64 277.783 231.039C274.996 228.438 271.639 227.138 267.711 227.138C261.818 227.138 257.213 230.044 253.896 235.856C250.578 241.642 248.919 249.83 248.919 260.42C248.919 267.48 249.662 273.478 251.149 278.415C252.635 283.352 254.772 287.107 257.559 289.682C260.372 292.256 263.756 293.544 267.711 293.544Z" fill="#D5FF00"/>
</svg>
