<svg id="Layer_1" data-name="Layer 1" xmlns="http://www.w3.org/2000/svg" viewBox="0 0 400 400"><defs><style>.cls-1{fill:#111;}.cls-2{font-size:112.11px;}</style></defs><path class="cls-1" d="M130.63,293.8H257.42a1,1,0,0,1,1,1v30.75a1,1,0,0,1-1,1H97.9a1,1,0,0,1-1-1v-217a1,1,0,0,1,1-1H249.17a1,1,0,0,0,1-1V71.29a1,1,0,0,1,1.69-.7l50.54,50.54a1,1,0,0,1,0,1.4L251.85,173.1a1,1,0,0,1-1.69-.7V141.24a1,1,0,0,0-1-1H130.63a1,1,0,0,0-1,1V292.81A1,1,0,0,0,130.63,293.8Z"/><text class="cls-2" transform="translate(144.45 265.86)">10</text></svg>