<svg id="Layer_1" data-name="Layer 1" xmlns="http://www.w3.org/2000/svg" viewBox="0 0 400 400"><defs><style>.cls-1{fill:#111;}.cls-2{font-size:112.11px;}</style></defs><path class="cls-1" d="M269.54,293.8H142.41a.83.83,0,0,0-.83.83v31.08a.83.83,0,0,0,.83.82H302.27a.82.82,0,0,0,.82-.82V108.37a.83.83,0,0,0-.82-.83H150.67a.83.83,0,0,1-.83-.82V70.89a.83.83,0,0,0-1.41-.59l-50.94,51a.83.83,0,0,0,0,1.17l50.94,51a.83.83,0,0,0,1.41-.59V141.07a.83.83,0,0,1,.83-.82H269.54a.82.82,0,0,1,.82.82V293A.82.82,0,0,1,269.54,293.8Z"/><text class="cls-2" transform="translate(144.45 265.86)">10</text></svg>