<svg width="500" height="500" viewBox="0 0 500 500" fill="none" xmlns="http://www.w3.org/2000/svg">
<path d="M163.288 367.25H321.775C322.107 367.25 322.424 367.382 322.659 367.616C322.893 367.85 323.025 368.168 323.025 368.5V406.937C323.025 407.269 322.893 407.587 322.659 407.821C322.424 408.056 322.107 408.187 321.775 408.187H122.375C122.043 408.187 121.726 408.056 121.491 407.821C121.257 407.587 121.125 407.269 121.125 406.937V135.687C121.125 135.356 121.257 135.038 121.491 134.804C121.726 134.569 122.043 134.437 122.375 134.437H311.462C311.794 134.437 312.112 134.306 312.346 134.071C312.581 133.837 312.712 133.519 312.712 133.187V89.1124C312.718 88.8703 312.794 88.635 312.931 88.4352C313.068 88.2354 313.26 88.0797 313.484 87.987C313.708 87.8943 313.953 87.8686 314.192 87.9131C314.43 87.9575 314.65 88.0702 314.825 88.2374L378 151.412C378.229 151.646 378.357 151.96 378.357 152.287C378.357 152.615 378.229 152.929 378 153.162L314.813 216.375C314.637 216.542 314.417 216.655 314.179 216.699C313.941 216.744 313.695 216.718 313.471 216.625C313.248 216.533 313.055 216.377 312.919 216.177C312.782 215.977 312.706 215.742 312.7 215.5V176.55C312.7 176.218 312.568 175.9 312.334 175.666C312.099 175.432 311.782 175.3 311.45 175.3H163.288C162.956 175.3 162.638 175.432 162.404 175.666C162.169 175.9 162.038 176.218 162.038 176.55V366.012C162.041 366.342 162.174 366.656 162.408 366.888C162.642 367.12 162.958 367.25 163.288 367.25Z" fill="#D5FF00"/>
<path d="M222.926 223.097V316.188H211.653V234.915H211.108L188.381 250.006V238.551L211.653 223.097H222.926ZM280.062 317.46C273.214 317.46 267.381 315.597 262.562 311.869C257.744 308.112 254.063 302.672 251.517 295.551C248.972 288.4 247.699 279.763 247.699 269.642C247.699 259.581 248.972 250.991 251.517 243.869C254.093 236.718 257.79 231.263 262.608 227.506C267.456 223.718 273.275 221.824 280.062 221.824C286.85 221.824 292.653 223.718 297.472 227.506C302.32 231.263 306.017 236.718 308.562 243.869C311.138 250.991 312.426 259.581 312.426 269.642C312.426 279.763 311.153 288.4 308.608 295.551C306.062 302.672 302.381 308.112 297.562 311.869C292.744 315.597 286.911 317.46 280.062 317.46ZM280.062 307.46C286.85 307.46 292.123 304.187 295.881 297.642C299.638 291.097 301.517 281.763 301.517 269.642C301.517 261.581 300.653 254.718 298.926 249.051C297.229 243.384 294.775 239.066 291.562 236.097C288.381 233.127 284.547 231.642 280.062 231.642C273.335 231.642 268.078 234.96 264.29 241.597C260.502 248.203 258.608 257.551 258.608 269.642C258.608 277.703 259.456 284.551 261.153 290.188C262.85 295.824 265.29 300.112 268.472 303.051C271.684 305.991 275.547 307.46 280.062 307.46Z" fill="#D5FF00"/>
</svg>
