<svg width="1396" height="500" viewBox="0 0 1396 500" fill="none" xmlns="http://www.w3.org/2000/svg">
<path d="M436.838 269.55H503.134L511.44 230.092L516.82 204.319L533.961 123.108L538.246 102.852H538.418L539.631 97.0453L546.724 63.447H508.263H501.327H474.957H461.969C460.268 63.447 458.567 63.447 456.827 63.447H342.708L334.375 102.839L319.199 174.443L312.883 204.319L307.424 230.092L277.586 370.899H277.705L263.979 435.72H335.575L367.998 282.641L369.382 289.239L369.698 290.704L400.42 435.72L471.99 435.601L440.569 287.154L436.838 269.55ZM379.139 230.092L384.598 204.319L400.684 128.242H400.565L405.945 102.839H466.597L463.749 116.47L445.145 204.253L440.517 229.617V230.026L379.139 230.092Z" fill="#D5FF00"/>
<path d="M1046.7 63.447H975.582L968.777 95.5272L968.711 95.4876L946.675 199.867L945.726 204.312L940.292 230.074H940.266L896.708 435.72H968.316L1003.37 269.264L1005.7 258.171L1032 133.583L1031.94 133.557L1038.41 102.835L1046.7 63.447Z" fill="#D5FF00"/>
<path d="M857.996 140.93L857.983 140.917L866 102.835L874.295 63.447H803.176L794.815 102.888L794.71 102.835L763.35 251.364L724.302 435.72H795.91L830.962 269.264L839.151 230.311H839.138L844.571 204.55H844.584L849.543 181.03L857.996 140.93Z" fill="#D5FF00"/>
<path d="M916.829 270.265L916.843 270.239H916.869L925.167 230.908H925.154L945.668 133.889L945.641 133.875L952.147 103.029L960.498 63.447H888.881L882.043 95.6588L881.95 95.6058L851.904 237.616L844.986 270.239H916.67L916.829 270.265Z" fill="#D5FF00"/>
<path d="M727.77 276.081L737.322 230.857L742.784 205.009L772.576 64.0294V63.447H572.19L563.838 102.967L563.535 104.423L542.28 205.009L536.818 230.857L529.403 265.97L529.297 266.433L493.278 436.954H564.92L600.253 270.192H657.382L622.075 437.443H693.73L727.546 277.299L727.77 276.081ZM671.143 205.009L665.68 230.857H608.578L635.665 102.954H692.714L671.143 205.009Z" fill="#D5FF00"/>
<path d="M190.635 102.897H262.175L309.106 102.765L317.424 63.447H270.533H126.868L96.7449 204.773H168.923L190.635 102.897Z" fill="#D5FF00"/>
<path d="M284.667 230.796L237.813 230.625H194.33L166.004 230.651H150.661L94.0767 230.704L50.1954 435.719H122.269L157.775 269.848H229.265L276.265 270.006L284.667 230.796Z" fill="#D5FF00"/>
<path d="M1344.96 228.959L1336.65 268.195L1288.14 268.313L1270.18 351.269H1198.42L1215.97 268.51L1216.04 268.195L1224.29 229.274L1224.36 228.959H1224.37L1241.93 146.174L1314.54 146.292L1296.65 228.959H1344.96Z" fill="#D5FF00"/>
<path d="M1201.87 230.625L1194.28 266.525L1193.49 270.211L1170.83 270.265L1179.03 231.453L1179.21 230.625H1201.87Z" fill="#D5FF00"/>
<path d="M1113.14 204.335V204.322H1113.24L1135.11 102.813H1252.21L1260.48 63.5789L1238.23 63.5657H1237.98L1215.65 63.5525L1132.67 63.4998V63.4866L1097.99 63.447L1070.71 63.4734L1062.33 102.906L1047.43 173.106L1028.61 260.965L1028.76 260.978L1028.74 261.07L1028.61 260.965L991.531 435.72H991.677H992.192H1063.43L1063.44 435.654L1114.73 435.614L1136.86 435.601H1137.13L1159.26 435.588H1159.47L1181.59 435.575H1181.67L1190.03 396.222H1071.91L1099.15 269.722L1122.87 269.708H1149.76L1150.05 268.271L1158.11 230.078H1107.57L1113.24 204.322L1113.14 204.335Z" fill="#D5FF00"/>
</svg>
