<svg width="45" height="35" viewBox="0 0 45 35" fill="none" xmlns="http://www.w3.org/2000/svg">
<path fill-rule="evenodd" clip-rule="evenodd" d="M38.6763 17.8779C38.6763 16.6541 38.569 15.4773 38.3697 14.3477H22.4863V21.0238H31.5625C31.1716 23.1812 29.9834 25.009 28.1973 26.2329V30.5633H33.6476C36.8365 27.5587 38.6763 23.1341 38.6763 17.8779Z" fill="#4285F4"/>
<path fill-rule="evenodd" clip-rule="evenodd" d="M22.4868 34.7445C27.0402 34.7445 30.8578 33.199 33.6481 30.5631L28.1978 26.2326C26.6876 27.2682 24.7559 27.8801 22.4868 27.8801C18.0944 27.8801 14.3765 24.8441 13.0503 20.7646H7.41602V25.2363C10.191 30.8769 15.8943 34.7445 22.4868 34.7445Z" fill="#34A853"/>
<path fill-rule="evenodd" clip-rule="evenodd" d="M13.0492 20.7655C12.7119 19.7299 12.5202 18.6238 12.5202 17.4862C12.5202 16.3487 12.7119 15.2426 13.0492 14.207V9.73535H7.41487C6.27268 12.0653 5.62109 14.7013 5.62109 17.4862C5.62109 20.2712 6.27268 22.9072 7.41487 25.2371L13.0492 20.7655Z" fill="#FBBC05"/>
<path fill-rule="evenodd" clip-rule="evenodd" d="M22.4868 7.09096C24.9628 7.09096 27.1859 7.96176 28.9337 9.67198L33.7707 4.72176C30.8501 1.93678 27.0326 0.226562 22.4868 0.226562C15.8943 0.226562 10.191 4.09416 7.41602 9.73474L13.0503 14.2064C14.3765 10.127 18.0944 7.09096 22.4868 7.09096Z" fill="#EA4335"/>
</svg>
