<svg width="500" height="500" viewBox="0 0 500 500" fill="none" xmlns="http://www.w3.org/2000/svg">
<path d="M139.5 135.1L139.5 403.775C139.5 404.403 140.009 404.912 140.638 404.912H198.212C198.841 404.912 199.35 404.403 199.35 403.775V135.1C199.35 134.472 198.841 133.962 198.212 133.962H140.638C140.009 133.962 139.5 134.472 139.5 135.1Z" fill="white"/>
<path d="M281.425 135.1V403.775C281.425 404.403 281.934 404.912 282.563 404.912H340.138C340.766 404.912 341.275 404.403 341.275 403.775V135.1C341.275 134.472 340.766 133.962 340.138 133.962H282.563C281.934 133.962 281.425 134.472 281.425 135.1Z" fill="white"/>
</svg>
