<svg width="500" height="500" viewBox="0 0 500 500" fill="none" xmlns="http://www.w3.org/2000/svg">
<path d="M361.454 250.472L139.744 385.825C139.571 385.934 139.372 385.994 139.168 386C138.964 386.005 138.762 385.955 138.583 385.856C138.405 385.757 138.256 385.611 138.154 385.434C138.051 385.258 137.998 385.057 138 384.853V114.147C137.998 113.943 138.051 113.742 138.154 113.566C138.256 113.389 138.405 113.243 138.583 113.144C138.762 113.045 138.964 112.995 139.168 113C139.372 113.006 139.571 113.066 139.744 113.175L361.454 248.503C361.621 248.607 361.759 248.752 361.854 248.925C361.95 249.097 362 249.29 362 249.487C362 249.684 361.95 249.878 361.854 250.05C361.759 250.222 361.621 250.368 361.454 250.472Z" fill="white"/>
</svg>
