<svg width="500" height="500" viewBox="0 0 500 500" fill="none" xmlns="http://www.w3.org/2000/svg">
<path d="M425 284.848V214.137L376.433 211.043L366.342 185.147L395.98 151.115L348.077 103.407L312.768 132.799L288.168 122.063L285.077 74H213.717L211.832 122.063L185.98 131.531L151.32 100.484L100.234 149.738L132.391 185.72L122.3 211.6L75 212.869V284.848L121.682 287.369L132.391 313.249L101.486 347.978L149.389 399.12L185.316 367.547L211.168 378.283L213.687 425H284.985L288.075 378.283L310.775 367.547L347.985 399.754L397.881 348.628L367.656 313.249L377.746 288.003L425 284.848ZM249.985 330.064C234.048 330.061 218.47 325.327 205.222 316.461C191.973 307.594 181.649 294.993 175.555 280.252C169.46 265.511 167.87 249.291 170.984 233.645C174.098 217.999 181.778 203.629 193.051 192.352C204.324 181.075 218.684 173.399 234.316 170.293C249.947 167.187 266.148 168.792 280.868 174.904C295.589 181.017 308.168 191.362 317.015 204.632C325.862 217.902 330.579 233.5 330.57 249.454C330.566 260.044 328.478 270.529 324.426 280.312C320.374 290.094 314.437 298.982 306.954 306.467C299.471 313.952 290.588 319.889 280.814 323.938C271.039 327.987 260.563 330.069 249.985 330.064Z" fill="white"/>
</svg>
