<svg id="Layer_1" data-name="Layer 1" xmlns="http://www.w3.org/2000/svg" viewBox="0 0 400 400"><rect x="212.29" y="90.1" width="22.6" height="219.81" rx="1.24"/><rect x="251.31" y="127.28" width="22.6" height="145.45" rx="1.24"/><rect x="290.33" y="168.19" width="22.6" height="63.63" rx="1.24"/><path d="M190,91.81,146,129a1.27,1.27,0,0,0-.43,1v.41a1,1,0,0,0-1-1H88.06a1,1,0,0,0-1,1V269.69a1,1,0,0,0,1,1h56.5a1,1,0,0,0,1-1v.41a1.27,1.27,0,0,0,.43.95l44,37.14a1.24,1.24,0,0,0,2-.95V92.76A1.24,1.24,0,0,0,190,91.81Z"/><rect x="212.29" y="90.1" width="22.6" height="219.81" rx="1.24"/><rect x="251.31" y="127.28" width="22.6" height="145.45" rx="1.24"/><rect x="290.33" y="168.19" width="22.6" height="63.63" rx="1.24"/><path d="M190,91.81,146,129a1.27,1.27,0,0,0-.43,1v.41a1,1,0,0,0-1-1H88.06a1,1,0,0,0-1,1V269.69a1,1,0,0,0,1,1h56.5a1,1,0,0,0,1-1v.41a1.27,1.27,0,0,0,.43.95l44,37.14a1.24,1.24,0,0,0,2-.95V92.76A1.24,1.24,0,0,0,190,91.81Z"/></svg>