<svg width="500" height="500" viewBox="0 0 500 500" fill="none" xmlns="http://www.w3.org/2000/svg">
<path d="M237.5 112.638L182.737 158.888L181.875 159.588H110.075C109.743 159.588 109.425 159.719 109.191 159.954C108.957 160.188 108.825 160.506 108.825 160.838V335C108.825 335.332 108.957 335.649 109.191 335.884C109.425 336.118 109.743 336.25 110.075 336.25H181.925L183.375 337.5L237.5 383.112C237.727 383.288 237.998 383.398 238.283 383.429C238.568 383.46 238.856 383.411 239.115 383.288C239.375 383.165 239.594 382.972 239.751 382.732C239.907 382.491 239.993 382.212 240 381.925V113.813C239.991 113.527 239.903 113.249 239.746 113.01C239.589 112.771 239.369 112.58 239.11 112.459C238.851 112.337 238.564 112.29 238.28 112.321C237.996 112.353 237.726 112.462 237.5 112.638Z" fill="white"/>
<path d="M352.815 220.88L335.031 203.096C334.426 202.491 333.264 202.671 332.436 203.499L258.499 277.436C257.671 278.264 257.491 279.426 258.096 280.031L275.88 297.815C276.485 298.42 277.647 298.239 278.475 297.411L352.411 223.475C353.239 222.647 353.42 221.485 352.815 220.88Z" fill="white"/>
<path d="M275.88 203.096L258.096 220.88C257.491 221.485 257.671 222.647 258.499 223.475L332.436 297.411C333.264 298.239 334.426 298.42 335.031 297.815L352.815 280.031C353.42 279.426 353.239 278.264 352.411 277.436L278.475 203.499C277.647 202.671 276.485 202.491 275.88 203.096Z" fill="white"/>
</svg>
