<svg width="500" height="500" viewBox="0 0 500 500" fill="none" xmlns="http://www.w3.org/2000/svg">
<path d="M340.837 156.962H315.687C314.831 156.962 314.137 157.656 314.137 158.512V337.225C314.137 338.081 314.831 338.775 315.687 338.775H340.837C341.694 338.775 342.387 338.081 342.387 337.225V158.512C342.387 157.656 341.694 156.962 340.837 156.962Z" fill="white"/>
<path d="M292.063 208.1H266.913C266.057 208.1 265.363 208.794 265.363 209.65V286.088C265.363 286.944 266.057 287.638 266.913 287.638H292.063C292.919 287.638 293.613 286.944 293.613 286.088V209.65C293.613 208.794 292.919 208.1 292.063 208.1Z" fill="white"/>
<path d="M237.5 112.637L182.737 158.887L181.875 159.587H110.075C109.743 159.587 109.425 159.719 109.191 159.954C108.957 160.188 108.825 160.506 108.825 160.837V335C108.825 335.331 108.957 335.649 109.191 335.884C109.425 336.118 109.743 336.25 110.075 336.25H181.925L183.375 337.5L237.5 383.112C237.727 383.288 237.998 383.398 238.283 383.429C238.568 383.46 238.856 383.411 239.115 383.288C239.375 383.165 239.594 382.972 239.751 382.732C239.907 382.491 239.993 382.212 240 381.925V113.812C239.991 113.527 239.903 113.249 239.746 113.01C239.589 112.771 239.369 112.58 239.11 112.459C238.851 112.337 238.564 112.289 238.28 112.321C237.996 112.353 237.726 112.462 237.5 112.637Z" fill="white"/>
</svg>
