<svg width="500" height="500" viewBox="0 0 500 500" fill="none" xmlns="http://www.w3.org/2000/svg">
<path d="M414.437 108.301H85.5625C85.1344 108.301 84.7875 108.648 84.7875 109.076V390.913C84.7875 391.341 85.1344 391.688 85.5625 391.688H414.437C414.865 391.688 415.213 391.341 415.213 390.913V109.076C415.213 108.648 414.865 108.301 414.437 108.301Z" fill="white"/>
<path d="M274.837 318.289H117.6C117.089 318.289 116.675 318.703 116.675 319.214V346.051C116.675 346.562 117.089 346.976 117.6 346.976H274.837C275.348 346.976 275.762 346.562 275.762 346.051V319.214C275.762 318.703 275.348 318.289 274.837 318.289Z" fill="black"/>
<path d="M372.125 318.289H304.775C304.264 318.289 303.85 318.703 303.85 319.214V346.051C303.85 346.562 304.264 346.976 304.775 346.976H372.125C372.636 346.976 373.05 346.562 373.05 346.051V319.214C373.05 318.703 372.636 318.289 372.125 318.289Z" fill="black"/>
<path d="M372.125 262.587H214.887C214.377 262.587 213.962 263.001 213.962 263.512V290.349C213.962 290.86 214.377 291.274 214.887 291.274H372.125C372.636 291.274 373.05 290.86 373.05 290.349V263.512C373.05 263.001 372.636 262.587 372.125 262.587Z" fill="black"/>
<path d="M184.95 262.587H117.6C117.089 262.587 116.675 263.001 116.675 263.512V290.349C116.675 290.86 117.089 291.274 117.6 291.274H184.95C185.461 291.274 185.875 290.86 185.875 290.349V263.512C185.875 263.001 185.461 262.587 184.95 262.587Z" fill="black"/>
</svg>
