<svg id="Layer_1" data-name="Layer 1" xmlns="http://www.w3.org/2000/svg" viewBox="0 0 400 400"><path d="M219.91,272.46H115.47a.67.67,0,0,1-.62-.71V251.16a.67.67,0,0,1,.62-.71H219.91a.67.67,0,0,1,.62.71v20.59A.67.67,0,0,1,219.91,272.46Z"/><path d="M284.53,272.46H239.8a.67.67,0,0,1-.62-.71V251.16a.67.67,0,0,1,.62-.71h44.73a.67.67,0,0,1,.62.71v20.59A.67.67,0,0,1,284.53,272.46Z"/><path d="M284.53,229.73H180.09a.67.67,0,0,1-.62-.71V208.43a.67.67,0,0,1,.62-.71H284.53a.67.67,0,0,1,.62.71V229A.67.67,0,0,1,284.53,229.73Z"/><path d="M160.2,229.73H115.47a.67.67,0,0,1-.62-.71V208.43a.67.67,0,0,1,.62-.71H160.2a.67.67,0,0,1,.62.71V229A.67.67,0,0,1,160.2,229.73Z"/><path d="M318.14,317.81H81.86c-7.74,0-14-6.72-14-15V86.62c0-8.26,6.29-15,14-15H318.14c7.74,0,14,6.72,14,15V302.83C332.17,311.09,325.88,317.81,318.14,317.81ZM94.77,289H305.23V100.41H94.77Z"/></svg>